<svg xmlns="http://www.w3.org/2000/svg" width="560" height="160" viewBox="0 0 560 160" role="img" aria-labelledby="title desc">
  <title id="title">UniTalk</title>
  <desc id="desc">UniTalk campus forum logo with blue community icon</desc>
  <defs>
    <linearGradient id="blue" x1="78" y1="24" x2="78" y2="132" gradientUnits="userSpaceOnUse">
      <stop offset="0" stop-color="#4f8cff"/>
      <stop offset="1" stop-color="#1557e8"/>
    </linearGradient>
    <linearGradient id="softBlue" x1="78" y1="46" x2="78" y2="128" gradientUnits="userSpaceOnUse">
      <stop offset="0" stop-color="#9fc3ff"/>
      <stop offset="1" stop-color="#5d92f2"/>
    </linearGradient>
    <filter id="shadow" x="-20%" y="-20%" width="140%" height="140%">
      <feDropShadow dx="0" dy="8" stdDeviation="9" flood-color="#1557e8" flood-opacity=".12"/>
    </filter>
  </defs>
  <rect width="560" height="160" fill="none"/>
  <g filter="url(#shadow)">
    <path d="M30 65C42 31 76 17 113 28C137 35 153 51 163 72" fill="none" stroke="url(#blue)" stroke-width="8" stroke-linecap="round"/>
    <circle cx="96" cy="69" r="21" fill="url(#blue)"/>
    <path d="M57 130C61 104 77 92 96 92C116 92 132 104 136 130Z" fill="url(#blue)"/>
    <circle cx="45" cy="86" r="14" fill="url(#softBlue)" opacity=".9"/>
    <path d="M21 130C25 112 36 104 49 104C61 104 70 111 74 123C66 126 60 130 57 136H21Z" fill="url(#softBlue)" opacity=".9"/>
    <circle cx="146" cy="86" r="14" fill="url(#softBlue)" opacity=".9"/>
    <path d="M118 123C122 111 132 104 145 104C159 104 169 112 173 130H137C134 130 126 126 118 123Z" fill="url(#softBlue)" opacity=".9"/>
  </g>
  <line x1="214" y1="32" x2="214" y2="128" stroke="#d9e2f1" stroke-width="2"/>
  <text x="254" y="82" fill="#0f1b32" font-family="Inter, 'Segoe UI', Arial, sans-serif" font-size="58" font-weight="700" letter-spacing="6">UniTalk</text>
  <text x="258" y="121" fill="#1f63ff" font-family="Inter, 'Segoe UI', Arial, sans-serif" font-size="24" font-weight="600" letter-spacing="10">CAMPUS FORUM</text>
</svg>
